<?xml version="1.0" encoding="UTF-8"?> <!-- Generator: Adobe Illustrator 25.2.1, SVG Export Plug-In . SVG Version: 6.00 Build 0) --> <svg xmlns="http://www.w3.org/2000/svg" xmlns:xlink="http://www.w3.org/1999/xlink" version="1.1" id="b0843417-d649-40ea-b627-ae7d8615db30" x="0px" y="0px" viewBox="0 0 503 182" style="enable-background:new 0 0 503 182;" xml:space="preserve"> <style type="text/css"> .st0{fill:#FED22B;} </style> <path d="M260.7,101.1c0-17,8.5-27.7,25.3-27.7c13.8,0,21,6.7,23,18.6l-9.2,1.9c-1.9-7.9-5.9-11.9-14-11.9 c-11.1,0-15.3,7.4-15.3,19.1c0,11.1,4.6,17.9,15.7,17.9c11.4,0,14.3-5.9,14.3-11.9H286v-8.1h23.8v27.3h-9.1v-11.6h-0.9 c-2.3,7-7.5,12.5-17.2,12.5C269.7,127.3,260.7,118.5,260.7,101.1z"></path> <path d="M338,106.9h-9.7v19.5h-9.9v-52h21.8c13,0,19.1,5.5,19.1,15.8c0,8.1-4.2,13.5-11.4,15.7l14.5,19.6v0.9h-11.6L338,106.9z M328.3,82.7v15.9h11.1c6.8,0,10.3-2.6,10.3-8.1c0-5.3-2.7-7.7-10.1-7.7H328.3z"></path> <path d="M367.6,74.4h37.5V83h-27.6v12.8h25v8.5h-25v13.5H405v8.6h-37.4V74.4z"></path> <path d="M409.3,74.4h41.9v9.1h-16v42.9h-9.9V83.5h-16L409.3,74.4z"></path> <path d="M482,113.1h-22.2l-4.5,13.3H445l19.3-52h13.3l19.3,52h-10.5L482,113.1z M462.4,105.8h17l-2.2-6.4 c-1.8-5.3-3.6-11.2-5.2-16.4h-2.2c-1.6,5.2-3.5,11.1-5.3,16.4L462.4,105.8z"></path> <path class="st0" d="M63.5,122c-7.6,4.1-14.7,7.9-21.9,11.7c-3.5,1.8-7.1,3.5-10.7,4.9c-6.4,2.6-16.6,10.8-23,10.8 c-2.6,0-3.5-0.8-2.7-3.4c0.7-2.7,1.8-5.3,3.4-7.7c6.9-9.2,13.7-18.5,22.1-26.5c5.2-5,20.9-21.5,23.8-24.5 c2.4-2.4,24.2-22.2,36.6-28.2c3.6-1.8,15.1-7.4,18.1-8.7c2.4-1.1,4.1-0.8,4.8-0.1c1.3,1.2,2,1.6,3.2,0.7c0,0,7.7,5.3,10.6,10.6 c3.1,5.7,17.4,27.6,17.4,27.6c10.4-11.5,65.1-41.8,77.1-48.4c17-9.3,39.7-21,42.9-22.4s5.6-4.5,9.3-4.5c0.8,0,6.4-3.7,11.4-3.7 c2.6,0,3.4,1.4,3.4,3.3c0,7.6-11.8,21.1-16.2,24.6c-7.5,5.9-34.5,30.4-43.2,39.6c-3,2.9-6.8,5-9.6,8c-3.4,3.8-7.3,7.2-11.5,10.2 c1.8,2.1,22.1,36.3,25,42c3.2,6.4,4.8,12,4.8,13.5c-0.6,0.5-1.2,0.8-1.9,1c-1.6,0-1.9-1.2-6.5-2.4c-13-3.4-31.4-24.5-37.9-32.1 c-4.9,14.1-16.3,33.8-19,38.9c-2,3.8-2.9,5.8-4.7,5.8s-3.1-1.3-3.1-4.6c0-5,8.2-29.7,11.6-38.6c0,0-1.2-0.1-4.9,2.8 s-25,15.9-28,18.8c-2.5,2.4-3.4,3-7.4,3c-1.4,0-4.4,2.8-8-3.6c-2.6-4.6-19.4-27.7-27.2-40.1l-6.3,3.4c0.3,1.9,1.6,2.2,2.9,5 c1.1,2.5,2.9,8.1,4.6,11.1c5.2,8.6,20.4,40.7,20.7,41.6c0.9,2.9,0.2,4.2-2.7,5.5c-2.4-1.1-4.3-3-5.5-5.3c-0.3-0.7-0.9-1.3-1.5-1.8 c-4.4-2.6-15.6-15.7-20.7-21.7c-3.3-4-6.2-8.3-8.9-12.7c-3.2,4.8-24.6,47-28.5,49.8c-2.7,1.9-5.3-0.2-5.4-1.3 c-0.4-7.1,2-12,2.5-14.8c0.6-3.2,1.7-6.3,3-9.3c1.1-2.7,6.4-21.1,8.1-27.1L63.5,122z"></path> <path class="st0" d="M212.5,15.9c0.5,1.9,0.8,3.9,1,5.9c0,1.8-2.9,9.7-5.3,13.7c-5.4,9-17.3,17.9-26.9,21.6 c-4.3,1.7-11.6,0.3-14.2-5.3c-0.4-0.8-1.2-5.3-1.8-6.4c-1.4-2.3-1.3-4.3,0.5-6.2c2-2.2,3.6-17.7,19.5-24.6 c12.2-5.3,18.5-1.7,20.4-1.5C208.2,13.2,210.7,14.1,212.5,15.9z"></path> <path class="st0" d="M92.8,43.6c-15.3,0-18.6-9-19.5-13.1c-0.7-3.1,3.8-11.5,7-14C87.5,10.7,95.4,5.7,105,5.7 c7.4,0,18.3,6.2,18.3,18.5C123.3,36.1,105.8,43.6,92.8,43.6z"></path> </svg> 