<svg xmlns="http://www.w3.org/2000/svg" xmlns:xlink="http://www.w3.org/1999/xlink" width="306" height="173" viewBox="0 0 306 173"><defs><clipPath id="b00609c4-ed7d-44eb-90e2-a4e2d7d8a423" transform="translate(5 5)"><path d="M3.63,163c-3.2,0-4.22-1-3.32-4.11a28.94,28.94,0,0,1,4.12-9.35c8.43-11.21,16.71-22.56,27-32.29C37.76,111.19,89.88,32.39,105,25c4.44-2.17,18.42-9,22-10.64,2.92-1.34,5-1,5.83-.16,1.55,1.47,2.38,2,3.84.84A86.75,86.75,0,0,1,156,28.28c9.19,8.47,28,25,28,25,12.73-14,78.68-41.6,82.66-43.33S273.51,4.53,278,4.53c1,0,7.82-4.53,13.86-4.53C295,0,296,1.73,296,4c0,9.23-14.32,25.73-19.73,30C267.17,41.18,173,149.22,169.41,152.72c-3.06,3-4.18,3.71-9,3.71-1.66,0-5.32,3.38-9.77-4.46-3.19-5.61-27.4-35.45-36.85-50.51l-12,2.64S36,148,31.6,149.79C23.75,153,11.43,163,3.63,163Z" fill="none" clip-rule="evenodd"/></clipPath><clipPath id="a3f65c1e-eb31-4de8-b6e6-f04990a9015a" transform="translate(5 5)"><rect width="296" height="163" fill="none"/></clipPath></defs><g id="abef4941-1916-4c2f-a486-54ea46de2b85" data-name="Layer 2"><g id="fe634285-1628-4f16-bee9-4814614d727b" data-name="Layer 1"><g clip-path="url(#b00609c4-ed7d-44eb-90e2-a4e2d7d8a423)"><g clip-path="url(#a3f65c1e-eb31-4de8-b6e6-f04990a9015a)"><rect width="306" height="173" fill="#fed22b"/></g></g></g></g></svg>